<svg xmlns="http://www.w3.org/2000/svg" xmlns:xlink="http://www.w3.org/1999/xlink">
	<symbol id="monochrome" viewBox="0 0 186 218" fill="none">
		<path d="M148.775 105.046C150.475 102.346 148.575 98.8459 145.475 98.8459H108.216C105.432 98.8459 103.499 96.0718 104.464 93.4599L136.975 5.44587C138.675 0.945875 132.475 -2.15412 129.875 1.84588L37.0746 143.246C35.3746 145.946 37.2746 149.446 40.3746 149.446H76.1908C79.6732 149.446 82.0891 152.917 80.8796 156.182L73.6896 175.595C69.6531 186.494 57.2723 192.237 47.9099 185.351C29.0924 171.511 16.8746 149.252 16.8746 124.146C16.8746 84.8135 46.9451 52.3461 85.4089 48.5161C86.6442 48.393 87.7748 47.7385 88.4577 46.7018L96.6547 34.26C97.5049 32.9696 96.6332 31.234 95.0887 31.1831C94.3911 31.1601 93.6899 31.1459 92.9746 31.1459C40.4746 31.1459 -2.02538 74.8459 0.074617 127.846C1.72179 170.285 32.1904 205.682 72.3783 214.846C74.7288 215.382 77.1343 214.336 78.4573 212.321L148.875 105.046H148.775Z" fill="currentColor"/>
		<path d="M136.557 42.2329C135.49 41.5621 134.071 42.047 133.637 43.2299L129.473 54.5949C128.958 56.0001 129.561 57.5644 130.856 58.3136C153.608 71.4699 168.974 96.0744 168.974 124.146C168.974 152.416 139.324 194.942 101.424 199.657C99.5715 199.888 97.8721 200.86 96.8449 202.419L89.776 213.149C88.5915 214.947 89.6337 217.358 91.7778 217.554C133.38 221.357 185.974 177.447 185.974 124.146C185.974 97.5163 175.353 66.6381 136.557 42.2329Z" fill="currentColor"/>
	</symbol>

	<symbol id="light" viewBox="0 0 186 218" fill="none">
		<path d="M148.775 105.046C150.475 102.346 148.575 98.8459 145.475 98.8459H108.216C105.432 98.8459 103.499 96.0718 104.464 93.4599L136.975 5.44587C138.675 0.945875 132.475 -2.15412 129.875 1.84588L37.0746 143.246C35.3746 145.946 37.2746 149.446 40.3746 149.446H76.1908C79.6732 149.446 82.0891 152.917 80.8796 156.182L73.6896 175.595C69.6531 186.494 57.2723 192.237 47.9099 185.351C29.0924 171.511 16.8746 149.252 16.8746 124.146C16.8746 84.8135 46.9451 52.3461 85.4089 48.5161C86.6442 48.393 87.7748 47.7385 88.4577 46.7018L96.6547 34.26C97.5049 32.9696 96.6332 31.234 95.0887 31.1831C94.3911 31.1601 93.6899 31.1459 92.9746 31.1459C40.4746 31.1459 -2.02538 74.8459 0.074617 127.846C1.72179 170.285 32.1904 205.682 72.3783 214.846C74.7288 215.382 77.1343 214.336 78.4573 212.321L148.875 105.046H148.775Z" fill="url(#paint0_linear_68_53)"/>
		<path d="M136.557 42.2329C135.49 41.5621 134.071 42.047 133.637 43.2299L129.473 54.5949C128.958 56.0001 129.561 57.5644 130.856 58.3136C153.608 71.4699 168.974 96.0744 168.974 124.146C168.974 152.416 139.324 194.942 101.424 199.657C99.5715 199.888 97.8721 200.86 96.8449 202.419L89.776 213.149C88.5915 214.947 89.6337 217.358 91.7778 217.554C133.38 221.357 185.974 177.447 185.974 124.146C185.974 97.5163 175.353 66.6381 136.557 42.2329Z" fill="#251356"/>
		<defs>
			<linearGradient id="paint0_linear_68_53" x1="0.0300178" y1="107.844" x2="149.475" y2="107.844" gradientUnits="userSpaceOnUse">
				<stop stop-color="#8D63E9"/>
				<stop offset="1" stop-color="#9D9CF9"/>
			</linearGradient>
		</defs>
	</symbol>

	<symbol id="dark" viewBox="0 0 186 218" fill="none">
		<path d="M148.775 105.046C150.475 102.346 148.575 98.8459 145.475 98.8459H108.216C105.432 98.8459 103.499 96.0718 104.464 93.4599L136.975 5.44587C138.675 0.945875 132.475 -2.15412 129.875 1.84588L37.0746 143.246C35.3746 145.946 37.2746 149.446 40.3746 149.446H76.1908C79.6732 149.446 82.0891 152.917 80.8796 156.182L73.6896 175.595C69.6531 186.494 57.2723 192.237 47.9099 185.351C29.0924 171.511 16.8746 149.252 16.8746 124.146C16.8746 84.8135 46.9451 52.3461 85.4089 48.5161C86.6442 48.393 87.7748 47.7385 88.4577 46.7018L96.6547 34.26C97.5049 32.9696 96.6332 31.234 95.0887 31.1831C94.3911 31.1601 93.6899 31.1459 92.9746 31.1459C40.4746 31.1459 -2.02538 74.8459 0.074617 127.846C1.72179 170.285 32.1904 205.682 72.3783 214.846C74.7288 215.382 77.1343 214.336 78.4573 212.321L148.875 105.046H148.775Z" fill="url(#paint0_linear_68_62)"/>
		<path d="M136.557 42.2329C135.49 41.5621 134.071 42.047 133.637 43.2299L129.473 54.5949C128.958 56.0001 129.561 57.5644 130.856 58.3136C153.608 71.4699 168.974 96.0744 168.974 124.146C168.974 152.416 139.324 194.942 101.424 199.657C99.5715 199.888 97.8721 200.86 96.8449 202.419L89.776 213.149C88.5915 214.947 89.6337 217.358 91.7778 217.554C133.38 221.357 185.974 177.447 185.974 124.146C185.974 97.5163 175.353 66.6381 136.557 42.2329Z" fill="#DCDDF7"/>
		<defs>
			<linearGradient id="paint0_linear_68_62" x1="120" y1="-48" x2="-62" y2="216" gradientUnits="userSpaceOnUse">
				<stop stop-color="#9D9CF9"/>
				<stop offset="1" stop-color="#8D63E9"/>
			</linearGradient>
		</defs>
	</symbol>

</svg>
